<svg xmlns="http://www.w3.org/2000/svg" width="32" height="32" viewBox="0 0 24 24" fill="none" stroke="#ef4444" stroke-width="2.5" stroke-linecap="round" stroke-linejoin="round">
    <path d="M12 2C6.48 2 2 6.48 2 12s4.48 10 10 10c4.18 0 7.77-2.56 9.29-6.21-.83-.16-1.49-.82-1.65-1.65a2.5 2.5 0 0 1 0-4.28c.16-.83.82-1.49 1.65-1.65C19.77 4.56 16.18 2 12 2z" />
    <circle cx="8" cy="8" r="1.5" fill="#ef4444" />
    <circle cx="8" cy="16" r="1.5" fill="#ef4444" />
    <circle cx="14" cy="12" r="1.5" fill="#ef4444" />
    <polygon points="11 9.5 15 12 11 14.5 11 9.5" fill="#ef4444" />
</svg>